<svg width="102" height="124" viewBox="0 0 102 124" fill="none" xmlns="http://www.w3.org/2000/svg">
<g id="Group 1">
<path id="sm" d="M29.944 79.68V75.312C29.944 74.704 29.848 74.304 29.656 74.112C29.496 73.92 29.096 73.824 28.456 73.824H18.472C15.944 73.824 14.68 72.56 14.68 70.032V64.512C14.68 61.984 15.944 60.72 18.472 60.72H37.144C39.672 60.72 40.936 61.984 40.936 64.512V68.496H29.8V65.04C29.8 64.432 29.704 64.032 29.512 63.84C29.32 63.648 28.92 63.552 28.312 63.552H27.688C27.048 63.552 26.632 63.648 26.44 63.84C26.28 64.032 26.2 64.432 26.2 65.04V69.504C26.2 70.144 26.28 70.56 26.44 70.752C26.632 70.912 27.048 70.992 27.688 70.992H37.672C40.2 70.992 41.464 72.256 41.464 74.784V80.208C41.464 82.736 40.2 84 37.672 84H18.712C16.184 84 14.92 82.736 14.92 80.208V76.224H26.056V79.68C26.056 80.32 26.152 80.736 26.344 80.928C26.536 81.088 26.936 81.168 27.544 81.168H28.456C29.096 81.168 29.496 81.088 29.656 80.928C29.848 80.736 29.944 80.32 29.944 79.68ZM76.735 60.72H86.095C88.623 60.72 89.887 61.984 89.887 64.512V84H78.367V65.04C78.367 64.432 78.271 64.032 78.079 63.84C77.919 63.648 77.519 63.552 76.879 63.552H75.583C74.335 63.552 73.711 64.176 73.711 65.424V84H62.191V65.04C62.191 64.432 62.095 64.032 61.903 63.84C61.711 63.648 61.311 63.552 60.703 63.552H59.359C58.143 63.552 57.535 64.016 57.535 64.944V84H46.015V60.72H57.535V61.968C57.983 61.136 58.911 60.72 60.319 60.72H69.919C71.839 60.72 73.039 61.456 73.519 62.928C73.935 61.456 75.007 60.72 76.735 60.72Z" fill="#840032"/>
<path id="ad" d="M28.408 57.168H29.752C30.968 57.168 31.576 56.704 31.576 55.776V40.944C31.576 40.016 30.968 39.552 29.752 39.552H28.408C27.8 39.552 27.4 39.648 27.208 39.84C27.016 40.032 26.92 40.432 26.92 41.04V55.68C26.92 56.32 27.016 56.736 27.208 56.928C27.4 57.088 27.8 57.168 28.408 57.168ZM31.576 36.72H43.096V60H31.576V58.752C31.128 59.584 30.2 60 28.792 60H19.192C16.664 60 15.4 58.736 15.4 56.208V40.512C15.4 37.984 16.664 36.72 19.192 36.72H28.792C30.2 36.72 31.128 37.136 31.576 37.968V36.72ZM61.1268 57.168H62.4708C63.6868 57.168 64.2948 56.704 64.2948 55.776V40.944C64.2948 40.016 63.6868 39.552 62.4708 39.552H61.1268C60.5188 39.552 60.1188 39.648 59.9268 39.84C59.7348 40.032 59.6388 40.432 59.6388 41.04V55.68C59.6388 56.32 59.7348 56.736 59.9268 56.928C60.1188 57.088 60.5188 57.168 61.1268 57.168ZM64.2948 27.888H75.8148V60H64.2948V58.752C63.8468 59.584 62.9188 60 61.5108 60H51.9108C49.3828 60 48.1188 58.736 48.1188 56.208V40.512C48.1188 37.984 49.3828 36.72 51.9108 36.72H61.5108C62.9188 36.72 63.8468 37.136 64.2948 37.968V27.888Z" fill="black"/>
<path id="[" d="M25.704 28.408H13.536V87.592H25.704V91.84H7.2V24.16H25.704V28.408Z" fill="black"/>
<path id="]" d="M97.624 24.16V91.84H79.12V87.592H91.288V28.408H79.12V24.16H97.624Z" fill="black"/>
</g>
</svg>
